# xmcd
#
# Track frame offsets:
#	150
#	26650
#	51472
#	74536
#	96560
#	127683
#	151030
#	176733
#	199626
#	222518
#
# Disc length: 3274 seconds
#
# Revision: 2
# Processed by: cddbd v1.5.2PL0 Copyright (c) Steve Scherf et al.
# Submitted via: EZCDAudioConverter 8.0.2.1
#
DISCID=900cc80a
DTITLE=Nam Kha, Phi Nhung - 10 Tuyệt Phẩm Đất Phương Nam. Nhớ Em Lý Bông Mai
DYEAR=2005
DGENRE=Pop
TTITLE0=Nam Kha - Nhớ Em Lý Bông Mai
TTITLE1=Nam Kha - Chuyện hợp tan
TTITLE2=Nam Kha - Màu hoa bí
TTITLE3=Phi Nhung - Người đã thay lòng
TTITLE4=Nam Kha - Pháo hồng tiễn biệt
TTITLE5=Phi Nhung - Chín dòng sông hò hẹn
TTITLE6=Nam Kha - Điệu buồn phương Nam
TTITLE7=Nam Kha - Như một cơn mê
TTITLE8=Nam Kha - Cánh có và giòng sông
TTITLE9=Phi Nhung - Hương tóc mạ non
EXTD=
EXTT0=
EXTT1=
EXTT2=
EXTT3=
EXTT4=
EXTT5=
EXTT6=
EXTT7=
EXTT8=
EXTT9=
PLAYORDER=
